{"title":"Hard Ride to Hell 2010 DVDRip Xvid BigPerm LKRG","uid":6398038,"size":1078834943,"categoryP":"video","categoryS":"movies","magnet":"?xt=urn:btih:775d102a10edce30aa6c9131d4e5a2fddd0e9842&amp;dn=Hard+Ride+to+Hell+2010+DVDRip+Xvid+BigPerm+LKRG&amp;tr=udp%3A%2F%2Ftracker.openbittorrent.com%3A80&amp;tr=udp%3A%2F%2Fopen.demonii.com%3A1337&amp;tr=udp%3A%2F%2Ftracker.coppersurfer.tk%3A6969&amp;tr=udp%3A%2F%2Fexodus.desync.com%3A6969","seeders":0,"leechers":3,"uploader":".BONE.","files":73,"time":1305578570,"description":"Plot\n\nA group of family and friends on a camping trip through the Texas badlands are taken\non a one-way ride to Hell after they inadvertently witness a ritual sacrifice at a deserted campsite...\n &lt;a href=&quot;\nhttp://www.imdb.com/title/tt1654833/&quot; rel=&quot;nofollow&quot; target=&quot;_NEW&quot;&gt;\nhttp://www.imdb.com/title/tt1654833/&lt;/a&gt;\n\nEncoded By .......: BigPerm1828\nRuntime ..........: 1h 34mn\nFile Size ........: 1.01 GB\nResolution .......: 704x396\nIMDb URL .........: http://www.imdb.com/title/tt1654833/\nLanguage .........: Spanish and English\nSubtitles ........: English\nVideo\nID : 0\nFormat : MPEG-4 Visual\nFormat profile : Advanced Simple@L5\nFormat settings, BVOP : Yes\nFormat settings, QPel : No\nFormat settings, GMC : No warppoints\nFormat settings, Matrix : Default (H.263)\nCodec ID : XVID\nCodec ID/Hint : XviD\nDuration : 1h 34mn\nBit rate : 57.7 Kbps\nWidth : 704 pixels\nHeight : 396 pixels\nDisplay aspect ratio : 16:9\nFrame rate : 29.970 fps\nColor space : YUV\nChroma subsampling : 4:2:0\nBit depth : 8 bits\nScan type : Progressive\nCompression mode : Lossy\nBits/(Pixel*Frame) : 0.007\nStream size : 38.8 MiB (4%)\nWriting library : XviD 1.2.1 (UTC 2008-12-04)\n\nAudio\nID : 1\nFormat : AC-3\nFormat/Info : Audio Coding 3\nCodec ID : 2000\nDuration : 1h 34mn\nBit rate mode : Constant\nBit rate : 448 Kbps\nChannel(s) : 6 channels\nSampling rate : 48.0 KHz\nBit depth : 16 bits\nCompression mode : Lossy\nStream size : 301 MiB (29%)\nAlignment : Aligned on interleaves\n &lt;a href=&quot;\nhttp://leetleech.org/images/72979488850054488594.png&quot; rel=&quot;nofollow&quot; target=&quot;_NEW&quot;&gt;\nhttp://leetleech.org/images/72979488850054488594.png&lt;/a&gt;\n &lt;a href=&quot;\nhttp://leetleech.org/images/74679459796232093970.png&quot; rel=&quot;nofollow&quot; target=&quot;_NEW&quot;&gt;\nhttp://leetleech.org/images/74679459796232093970.png&lt;/a&gt;\n &lt;a href=&quot;\nhttp://leetleech.org/images/10793006852436657225.png&quot; rel=&quot;nofollow&quot; target=&quot;_NEW&quot;&gt;\nhttp://leetleech.org/images/10793006852436657225.png&lt;/a&gt;\n &lt;a href=&quot;\nhttp://leetleech.org/images/89993656326149161207.png&quot; rel=&quot;nofollow&quot; target=&quot;_NEW&quot;&gt;\nhttp://leetleech.org/images/89993656326149161207.png&lt;/a&gt;","torrent":{"xt":"urn:btih:775d102a10edce30aa6c9131d4e5a2fddd0e9842","amp;dn":"Hard+Ride+to+Hell+2010+DVDRip+Xvid+BigPerm+LKRG","amp;tr":["udp%3A%2F%2Ftracker.openbittorrent.com%3A80","udp%3A%2F%2Fopen.demonii.com%3A1337","udp%3A%2F%2Ftracker.coppersurfer.tk%3A6969","udp%3A%2F%2Fexodus.desync.com%3A6969"],"infoHash":"775d102a10edce30aa6c9131d4e5a2fddd0e9842","infoHashBuffer":{"type":"Buffer","data":[119,93,16,42,16,237,206,48,170,108,145,49,212,229,162,253,221,14,152,66]},"announce":[],"urlList":[]}}